<?xml version="1.0" ?><svg style="enable-background:new 0 0 96 96;" version="1.1" viewBox="0 0 96 96" xml:space="preserve" xmlns="http://www.w3.org/2000/svg" xmlns:xlink="http://www.w3.org/1999/xlink"><style type="text/css">
	.st0{display:none;}
	.st1{display:inline;}
	.st2{fill:none;stroke:#FFFFFF;stroke-width:2;stroke-linecap:round;stroke-linejoin:round;stroke-miterlimit:10;}
	.st3{display:none;fill:none;stroke:#FFFFFF;stroke-width:2;stroke-linecap:round;stroke-linejoin:round;stroke-miterlimit:10;}
	.st4{fill:#FFFFFF;}
</style><g class="st0" id="Grid"/><g id="Home"/><g id="Search"/><g id="Plus"/><g id="Minus"/><g id="Setting"/><g id="People"/><g id="Statistic"/><g id="Left_Arrow"/><g id="Right_Arrow"/><g id="Up_Arrow"/><g id="Bottom_Arrow"/><g id="Attachment"/><g id="Calendar"/><g id="Price"><g><path class="st2" d="M71.5,4.6v86.8c0,1.4-1.7,2.1-2.7,1.1L49.1,72.9c-0.6-0.6-1.6-0.6-2.3,0L27.2,92.5c-1,1-2.7,0.3-2.7-1.1V4.6    c0-0.9,0.7-1.6,1.6-1.6h43.8C70.8,3,71.5,3.7,71.5,4.6z"/><line class="st2" x1="34.4" x2="61.6" y1="15.5" y2="15.5"/><g><path class="st4" d="M47,58.3c0-0.5-0.4-0.9-0.8-0.9c-0.4,0-0.9-0.1-1.3-0.2c-0.7-0.2-1.4-0.4-2.1-0.8c-0.7-0.3-1.3-0.8-1.9-1.3     c-0.3-0.3-0.6-0.6-0.9-0.9c-0.4-0.4-0.3-1.1,0.2-1.4l0.6-0.4c0.4-0.3,1-0.2,1.3,0.2c0.5,0.7,1.2,1.3,1.9,1.8     c0.6,0.4,1.3,0.7,2,0.8c0.6,0.1,1.1-0.3,1.1-0.9v-9.5c0-0.4-0.2-0.7-0.6-0.9l-2.1-0.8c-1-0.3-1.7-0.8-2.3-1.4     c-0.6-0.6-1-1.2-1.4-1.8c-0.3-0.6-0.5-1.2-0.6-1.8c-0.1-0.6-0.2-1.1-0.2-1.5c0-1.1,0.2-2.1,0.6-3c0.4-0.9,1-1.7,1.7-2.3     c0.7-0.6,1.5-1.2,2.3-1.5c0.6-0.3,1.2-0.5,1.8-0.6c0.4-0.1,0.7-0.5,0.7-0.9v-0.9c0-0.5,0.4-0.9,0.9-0.9h0c0.5,0,0.9,0.4,0.9,0.9     v0.8c0,0.5,0.4,0.9,0.9,0.9c0.3,0,0.7,0.1,1,0.1c0.6,0.1,1.3,0.3,1.9,0.5c0.6,0.3,1.2,0.6,1.7,1.1c0.3,0.3,0.7,0.6,1,0.9     c0.4,0.4,0.3,1-0.2,1.4l-0.6,0.4c-0.4,0.3-0.9,0.2-1.2-0.2c-0.5-0.6-1.1-1.1-1.8-1.5c-0.6-0.3-1.1-0.5-1.7-0.6     c-0.6-0.1-1.1,0.3-1.1,0.9v9.2c0,0.4,0.3,0.8,0.6,0.9l2.1,0.7c0.6,0.2,1.1,0.5,1.7,0.9c0.6,0.4,1.1,0.8,1.6,1.4     c0.5,0.6,0.9,1.2,1.2,2c0.3,0.8,0.4,1.7,0.4,2.7c0,1.1-0.2,2.1-0.6,3c-0.4,0.9-1,1.7-1.7,2.3c-0.7,0.6-1.5,1.2-2.5,1.5     c-0.7,0.3-1.4,0.5-2.1,0.6c-0.4,0.1-0.8,0.5-0.8,0.9v0.8c0,0.5-0.4,0.9-0.9,0.9h0c-0.5,0-0.9-0.4-0.9-0.9V58.3z M47,32.4     c0-0.7-0.7-1.1-1.3-0.9c-0.2,0.1-0.3,0.1-0.5,0.2c-0.6,0.3-1,0.7-1.5,1.1c-0.4,0.5-0.8,1-1,1.6c-0.3,0.6-0.4,1.3-0.4,2     c0,1.4,0.4,2.4,1.1,3.1c0.7,0.7,1.7,1.3,2.9,1.7l0.7,0.2V32.4z M48.8,54.3c0,0.6,0.6,1.1,1.2,0.9c0.3-0.1,0.6-0.2,0.8-0.3     c0.6-0.3,1.2-0.7,1.6-1.2c0.5-0.5,0.8-1.1,1.1-1.7c0.3-0.7,0.4-1.4,0.4-2.1c0-0.4-0.1-0.8-0.2-1.2c-0.1-0.4-0.3-0.8-0.5-1.2     c-0.2-0.4-0.6-0.7-1-1.1c-0.5-0.3-1-0.6-1.7-0.9l-1.7-0.6V54.3z"/></g></g></g><g id="News"/></svg>